<svg version="1.1" id="Layer_1" xmlns="http://www.w3.org/2000/svg" x="0" y="0" viewBox="0 0 510 200" xml:space="preserve"><style>.st2{fill:#0098d6}.st3{fill:#ff800c}.st5{fill:#92c71f}</style><path d="M260.5 50.2c4.5 4.4 4.5 11.7.1 16.2l-.1.1c-4.5 4.5-11.8 4.5-16.3 0-4.5-4.4-4.5-11.7-.1-16.2l.1-.1c4.5-4.4 11.7-4.4 16.3 0z" fill-rule="evenodd" clip-rule="evenodd" fill="#ff0275"/><path d="M198.7 112.5l11-60.1h22.9l-20.3 95.9h-24l-12.9-54.7-12.6 54.7H139l-20.4-95.9h23l11 60.1 13.2-60.1h19.6l13.3 60.1zm65.4 35.7h-22.3V77h22.3v71.2zm50.9-20c0-2-1.2-3.7-3-4.5-2-1.1-5.8-2.3-11.3-3.6-4.8-1-9.4-2.6-13.7-4.8-3.3-1.7-6.1-4.2-8.2-7.3-1.9-2.9-2.9-6.3-2.8-9.8 0-6.5 2.7-11.9 8.1-16.2 5.4-4.2 12.5-6.4 21.2-6.4 9.4 0 17 2.1 22.7 6.4 5.5 3.8 8.7 10.1 8.6 16.8h-22.2c0-5.7-3-8.6-9-8.6-2.1-.1-4.2.7-5.9 2-1.5 1.1-2.4 2.9-2.4 4.8 0 2 1.1 3.9 2.9 4.8 1.9 1.2 5 2.2 9.3 3 3.8.7 7.5 1.6 11.2 2.8 10.7 3.7 16.1 10.3 16.1 19.8 0 6.5-2.9 11.8-8.7 15.9s-13.2 6.1-22.4 6.1c-5.6.1-11.2-1-16.4-3.3-4.5-1.9-8.3-5.1-11.2-9-2.6-3.5-4-7.6-4-11.9h20.7c.1 3.3 1.2 5.7 3.3 7.2 2.4 1.6 5.2 2.4 8.1 2.3 3 0 5.3-.6 6.8-1.8 1.4-1.1 2.3-2.8 2.2-4.7zm29-16.3c-.1-6.6 1.3-13.1 4.1-19 2.6-5.4 6.8-9.8 11.9-12.8 5.6-3.1 11.9-4.6 18.2-4.5 10.7 0 19.1 3.3 25.2 9.9 6.2 6.6 9.2 15.6 9.2 27v.8c0 11.1-3.1 19.9-9.3 26.4-6.2 6.5-14.5 9.8-25.1 9.8-10.1 0-18.3-3-24.4-9.1s-9.5-14.3-10-24.7l.2-3.8zm22.2 1.4c0 6.6 1 11.4 3.1 14.5 2 3.1 5.5 4.8 9.1 4.6 7.9 0 11.9-6.1 12.1-18.2V112c0-12.8-4.1-19.2-12.2-19.2-7.4 0-11.4 5.5-12 16.5l-.1 4zm61.3 34.9V92.4h-10.3V77h10.3v-5.7c0-8.1 2.4-14.4 7.2-18.9 4.8-4.5 11.5-6.7 20.2-6.7 3.5 0 7 .5 10.4 1.4l.1 16.3c-1.8-.4-3.6-.6-5.5-.6-6.7 0-10.1 2.9-10.1 8.7V77h13.9v15.4h-13.9v55.9l-22.3-.1zm69.8-89V77H509v15.4h-11.7V125c0 2.7.5 4.5 1.5 5.6 1 1.1 2.9 1.6 5.7 1.6 1.9 0 3.7-.1 5.5-.4v15.9c-4 1.3-8.3 1.9-12.5 1.9-7.6 0-13.3-1.8-16.9-5.4s-5.5-9.1-5.5-16.4V92.4H466V77h9.1V59.2h22.2z" fill="#fff"/><path class="st2" d="M98.8 124.9c5.2 5.3 5.2 13.7 0 18.9-5 5.2-13.2 5.4-18.4.4l-.4-.4c-24-24.2-24-63.3 0-87.6 5.1-5.2 13.4-5.3 18.7-.2l.2.2c5.2 5.2 5.3 13.6.1 18.8l-.1.1c-6.5 6.7-10.2 15.7-10.2 25s3.6 18.2 10.1 24.8z"/><path class="st3" d="M56.5 170.6c4.2 6.1 2.9 14.4-3.1 18.8-6 4.3-14.3 2.9-18.5-3.1-6.6-9.1-11.3-19.3-14.1-30.1-4-15.9-3.4-32.5 1.8-48.1 5.6-16.1 16-30.1 29.9-40C62.6 60.9 74 55.6 86.1 52.5c7.1-1.8 14.4 2.5 16.2 9.6v.2c1.7 7.2-2.6 14.4-9.7 16.3-8.9 2.2-17.2 6-24.7 11.2-9.4 6.7-16.4 16.1-20.2 27-3.6 10.5-4 21.9-1.3 32.7 2.1 7.6 5.4 14.8 10.1 21.1z"/><path d="M85.4 52.8l.7-.2c7.1-1.8 14.4 2.5 16.2 9.6v.2c1.7 7.2-2.6 14.4-9.7 16.3-8.9 2.2-17.2 6-24.7 11.2-2.1 1.4-4 3.1-5.8 4.9 1.2-14.6 7.5-28.2 17.8-38.6 1.6-1.6 3.5-2.8 5.5-3.4z" fill="#005f3a"/><path class="st5" d="M55.1 169c5.1 5.3 5.1 13.7 0 19.1-5.2 5.2-13.7 5.2-18.9 0-48.3-48.8-48.3-127.4 0-176.2 5.2-5.2 13.7-5.2 18.9 0 5.1 5.3 5.1 13.7 0 19.1-37.9 38.2-37.9 99.8 0 138z"/><path d="M55.1 169c.2.2.5.6.7.8l.7.8c4.2 6.1 2.9 14.4-3.1 18.8-6 4.3-14.3 2.9-18.5-3.1-6.6-9.1-11.3-19.3-14.1-30.1-4-15.9-3.4-32.5 1.8-48.1 1.1-3.4 2.5-6.7 4.1-9.8v1.7c0 25.9 10.2 50.7 28.4 69z" fill="#b4771e"/><path class="st2" d="M496.3 167.1h1.6s.1 0 .1.1v14h-1.7v-14.1c-.1 0 0 0 0 0z"/><path class="st3" d="M502.3 174.1h1.6s.1 0 .1.1v6.9h-1.7v-7z"/><path class="st5" d="M508.4 177.6h1.6s.1 0 .1.1v3.4h-1.7v-3.5c-.1.1-.1 0 0 0z"/><path d="M296.2 167.1v14.1h-1.6v-14.1h1.6zm14.9 9.8c-.4.8-.9 1.6-1.5 2.2-.7.6-1.5 1.2-2.4 1.5-1 .4-2 .5-3 .5h-4.9V167h4.9c1 0 2 .2 3 .5.9.3 1.7.8 2.4 1.5.7.6 1.2 1.4 1.5 2.2.7 1.9.7 3.9 0 5.7zm-1.5-5c-.3-.7-.7-1.3-1.2-1.8s-1.2-.9-1.8-1.2c-.8-.3-1.6-.4-2.4-.4h-3.3v11.1h3.3c.8 0 1.6-.1 2.4-.4 1.4-.5 2.5-1.6 3-2.9.3-.7.4-1.4.4-2.2 0-.7-.1-1.5-.4-2.2zm14.6-3.4h-8.6v4.8h7.7v1.5h-7.7v4.9h8.7v1.5H314v-14.1h10.2v1.4zm15.4 12.6h-1.7l-1.6-3.7h-7.6l-1.7 3.7h-1.6l6.4-14.1h1.5l6.3 14.1zm-7.2-12.3l-3.2 7.2h6.4l-3.2-7.2zm10.3 2.7c.1.3.3.5.6.7.4.3.8.5 1.2.6.6.2 1.3.4 1.9.5 1.3.2 2.4.7 3.5 1.5.8.6 1.2 1.6 1.1 2.6 0 .6-.1 1.1-.4 1.6-.2.5-.6.9-1 1.3s-1 .6-1.5.8c-.6.2-1.3.3-1.9.3-1.1 0-2.1-.2-3.1-.5-1-.4-1.9-1-2.7-1.7l1-1.2c.7.6 1.4 1.1 2.2 1.5.8.3 1.7.5 2.6.5.8 0 1.6-.2 2.3-.7.6-.4.9-1.1.9-1.8 0-.3 0-.6-.2-.9-.1-.3-.3-.5-.6-.7-.3-.3-.7-.5-1.1-.6-.6-.2-1.2-.4-1.8-.5-.7-.1-1.4-.3-2.1-.6-.5-.2-1-.5-1.5-.8-.4-.3-.7-.7-.9-1.1-.2-.5-.3-1-.3-1.5s.1-1.1.3-1.5c.2-.5.6-.9 1-1.2.4-.4.9-.6 1.5-.8.6-.2 1.2-.3 1.9-.3.9 0 1.8.1 2.7.4.8.3 1.6.7 2.2 1.3l-.9 1.2c-.6-.5-1.3-.9-2-1.2-.7-.2-1.4-.4-2.1-.4-.4 0-.8.1-1.2.2-.3.1-.7.3-.9.5-.3.2-.5.4-.6.7-.1.3-.2.6-.2.9 0 .3 0 .6.1.9zm20.8 9.6h-1.6v-12.6h-4.7V167h11v1.5h-4.7v12.6zm8.3-6.3v6.3h-1.6V167h1.6v6.2h8.1V167h1.6v14.1h-1.6v-6.3h-8.1zm25.8 6.3h-1.7l-1.6-3.7h-7.7l-1.7 3.7h-1.6l6.4-14.1h1.5l6.4 14.1zm-7.2-12.3l-3.2 7.2h6.4l-3.2-7.2zm14.3 12.3h-1.6v-12.6h-4.7V167h11v1.5h-4.7v12.6zm13.4-14v14.1h-1.6v-14.1h1.6zm13.5 0h1.5v14.1h-1.3l-9.1-11.5v11.5h-1.5v-14.1h1.5l8.9 11.3v-11.3zm5.9 4.4c.1.3.3.5.6.7.4.3.8.5 1.2.6.6.2 1.3.4 1.9.5 1.3.2 2.4.7 3.5 1.5.8.6 1.2 1.6 1.1 2.6 0 .6-.1 1.1-.4 1.6-.2.5-.6.9-1 1.3s-1 .6-1.5.8c-.6.2-1.3.3-1.9.3-1.1 0-2.1-.2-3.1-.5-1-.4-1.9-1-2.7-1.7l1-1.2c.7.6 1.4 1.1 2.2 1.5.8.3 1.7.5 2.6.5.8 0 1.6-.2 2.3-.7.6-.4.9-1.1.9-1.8 0-.3 0-.6-.2-.9-.1-.3-.3-.5-.6-.7-.3-.3-.7-.5-1.1-.6-.6-.2-1.2-.4-1.8-.5-.7-.1-1.4-.3-2.1-.6-.5-.2-1-.5-1.5-.8-.4-.3-.7-.7-.9-1.1-.2-.5-.3-1-.3-1.5s.1-1.1.3-1.5c.2-.5.6-.9 1-1.2.4-.4.9-.6 1.5-.8.6-.2 1.2-.3 1.9-.3.9 0 1.8.1 2.7.4.8.3 1.6.7 2.2 1.3l-.9 1.2c-.6-.5-1.3-.9-2-1.2-.7-.2-1.4-.4-2.1-.4-.4 0-.8.1-1.2.2-.3.1-.7.3-.9.5-.3.2-.5.4-.6.7-.1.3-.2.6-.2.9 0 .3 0 .6.1.9zm20.6 2.1c-.3.6-.7 1.1-1.2 1.5-.5.4-1.1.7-1.8.9-.7.2-1.4.3-2.1.3h-3.4v5H448v-14.1h5.3c.7 0 1.5.1 2.2.3.6.2 1.2.5 1.7.9s.8.9 1.1 1.4c.3.6.4 1.2.4 1.9-.2.5-.3 1.2-.6 1.9zm-2.2-4.3c-.8-.5-1.8-.8-2.8-.8h-3.6v6.2h3.5c.5 0 1.1-.1 1.6-.2.4-.1.9-.3 1.2-.6.3-.3.6-.6.8-1 .2-.4.3-.8.3-1.3.1-.9-.3-1.7-1-2.3zm6.2-2.2v14.1h-1.6v-14.1h1.6zm12.9 14l-4.1-5.5h-4v5.5h-1.6V167h6c.7 0 1.4.1 2.1.3.6.2 1.1.5 1.6.9.4.4.8.8 1 1.3.2.5.4 1.1.4 1.7 0 .5-.1 1.1-.3 1.6-.2.5-.5.9-.8 1.2-.4.4-.8.6-1.2.9-.5.2-1 .4-1.5.5l4.3 5.7H475zm-1.1-11.8c-.8-.5-1.7-.8-2.7-.7h-4.4v5.7h4.3c.5 0 1-.1 1.5-.2.4-.1.8-.3 1.1-.6.3-.2.6-.6.8-.9.2-.4.3-.8.3-1.2.1-.9-.3-1.6-.9-2.1zm15.1-.8h-8.6v4.8h7.7v1.5h-7.7v4.9h8.7v1.5h-10.3v-14.1H489v1.4z" fill="#ff0275"/></svg>